<mxfile host="app.diagrams.net" modified="2023-06-25T18:17:59.032Z" agent="Mozilla/5.0 (Macintosh; Intel Mac OS X 10_15_7) AppleWebKit/537.36 (KHTML, like Gecko) Chrome/114.0.0.0 Safari/537.36" etag="z59QoBFysKDzLJPnYQhZ" version="21.3.8" type="github">
  <diagram name="Page-1" id="2YBvvXClWsGukQMizWep">
    <mxGraphModel dx="1026" dy="527" grid="1" gridSize="10" guides="1" tooltips="1" connect="1" arrows="1" fold="1" page="1" pageScale="1" pageWidth="850" pageHeight="1100" math="0" shadow="0">
      <root>
        <mxCell id="0" />
        <mxCell id="1" parent="0" />
        <mxCell id="pLPm9OdBzMOnJSmySy2Y-19" style="edgeStyle=orthogonalEdgeStyle;rounded=0;orthogonalLoop=1;jettySize=auto;html=1;exitX=1;exitY=0.3333333333333333;exitDx=0;exitDy=0;exitPerimeter=0;entryX=0;entryY=0.25;entryDx=0;entryDy=0;" edge="1" parent="1" source="pLPm9OdBzMOnJSmySy2Y-1" target="pLPm9OdBzMOnJSmySy2Y-2">
          <mxGeometry relative="1" as="geometry" />
        </mxCell>
        <mxCell id="pLPm9OdBzMOnJSmySy2Y-1" value="" style="shape=umlActor;verticalLabelPosition=bottom;verticalAlign=top;html=1;outlineConnect=0;" vertex="1" parent="1">
          <mxGeometry x="80" y="370" width="30" height="60" as="geometry" />
        </mxCell>
        <mxCell id="pLPm9OdBzMOnJSmySy2Y-12" style="edgeStyle=orthogonalEdgeStyle;rounded=0;orthogonalLoop=1;jettySize=auto;html=1;exitX=0.25;exitY=0;exitDx=0;exitDy=0;entryX=0.25;entryY=1;entryDx=0;entryDy=0;" edge="1" parent="1" source="pLPm9OdBzMOnJSmySy2Y-2" target="pLPm9OdBzMOnJSmySy2Y-3">
          <mxGeometry relative="1" as="geometry" />
        </mxCell>
        <mxCell id="pLPm9OdBzMOnJSmySy2Y-22" style="edgeStyle=orthogonalEdgeStyle;rounded=0;orthogonalLoop=1;jettySize=auto;html=1;exitX=0;exitY=0.75;exitDx=0;exitDy=0;entryX=0.5;entryY=1;entryDx=0;entryDy=0;" edge="1" parent="1" source="pLPm9OdBzMOnJSmySy2Y-2" target="pLPm9OdBzMOnJSmySy2Y-21">
          <mxGeometry relative="1" as="geometry">
            <Array as="points">
              <mxPoint x="210" y="480" />
              <mxPoint x="95" y="480" />
            </Array>
          </mxGeometry>
        </mxCell>
        <mxCell id="pLPm9OdBzMOnJSmySy2Y-2" value="View" style="rounded=0;whiteSpace=wrap;html=1;" vertex="1" parent="1">
          <mxGeometry x="210" y="430" width="120" height="60" as="geometry" />
        </mxCell>
        <mxCell id="pLPm9OdBzMOnJSmySy2Y-13" style="edgeStyle=orthogonalEdgeStyle;rounded=0;orthogonalLoop=1;jettySize=auto;html=1;exitX=0.5;exitY=1;exitDx=0;exitDy=0;" edge="1" parent="1" source="pLPm9OdBzMOnJSmySy2Y-3" target="pLPm9OdBzMOnJSmySy2Y-2">
          <mxGeometry relative="1" as="geometry" />
        </mxCell>
        <mxCell id="pLPm9OdBzMOnJSmySy2Y-14" style="edgeStyle=orthogonalEdgeStyle;rounded=0;orthogonalLoop=1;jettySize=auto;html=1;exitX=1;exitY=0.5;exitDx=0;exitDy=0;entryX=0;entryY=0.25;entryDx=0;entryDy=0;" edge="1" parent="1" source="pLPm9OdBzMOnJSmySy2Y-3" target="pLPm9OdBzMOnJSmySy2Y-5">
          <mxGeometry relative="1" as="geometry" />
        </mxCell>
        <mxCell id="pLPm9OdBzMOnJSmySy2Y-3" value="Controller" style="rounded=0;whiteSpace=wrap;html=1;" vertex="1" parent="1">
          <mxGeometry x="210" y="220" width="120" height="60" as="geometry" />
        </mxCell>
        <mxCell id="pLPm9OdBzMOnJSmySy2Y-4" value="" style="rounded=0;whiteSpace=wrap;html=1;" vertex="1" parent="1">
          <mxGeometry x="380" y="180" width="450" height="310" as="geometry" />
        </mxCell>
        <mxCell id="pLPm9OdBzMOnJSmySy2Y-8" style="edgeStyle=orthogonalEdgeStyle;rounded=0;orthogonalLoop=1;jettySize=auto;html=1;exitX=1;exitY=0.25;exitDx=0;exitDy=0;entryX=0;entryY=0.25;entryDx=0;entryDy=0;" edge="1" parent="1" source="pLPm9OdBzMOnJSmySy2Y-5" target="pLPm9OdBzMOnJSmySy2Y-6">
          <mxGeometry relative="1" as="geometry" />
        </mxCell>
        <mxCell id="pLPm9OdBzMOnJSmySy2Y-15" style="edgeStyle=orthogonalEdgeStyle;rounded=0;orthogonalLoop=1;jettySize=auto;html=1;exitX=0;exitY=0.75;exitDx=0;exitDy=0;entryX=0.75;entryY=1;entryDx=0;entryDy=0;" edge="1" parent="1" source="pLPm9OdBzMOnJSmySy2Y-5" target="pLPm9OdBzMOnJSmySy2Y-3">
          <mxGeometry relative="1" as="geometry" />
        </mxCell>
        <mxCell id="pLPm9OdBzMOnJSmySy2Y-5" value="Service" style="rounded=0;whiteSpace=wrap;html=1;" vertex="1" parent="1">
          <mxGeometry x="430" y="300" width="120" height="60" as="geometry" />
        </mxCell>
        <mxCell id="pLPm9OdBzMOnJSmySy2Y-10" style="edgeStyle=orthogonalEdgeStyle;rounded=0;orthogonalLoop=1;jettySize=auto;html=1;exitX=0;exitY=0.75;exitDx=0;exitDy=0;entryX=1;entryY=0.75;entryDx=0;entryDy=0;" edge="1" parent="1" source="pLPm9OdBzMOnJSmySy2Y-6" target="pLPm9OdBzMOnJSmySy2Y-5">
          <mxGeometry relative="1" as="geometry" />
        </mxCell>
        <mxCell id="pLPm9OdBzMOnJSmySy2Y-11" style="edgeStyle=orthogonalEdgeStyle;rounded=0;orthogonalLoop=1;jettySize=auto;html=1;exitX=1;exitY=0.5;exitDx=0;exitDy=0;entryX=0;entryY=0.5;entryDx=0;entryDy=0;" edge="1" parent="1" source="pLPm9OdBzMOnJSmySy2Y-6" target="pLPm9OdBzMOnJSmySy2Y-7">
          <mxGeometry relative="1" as="geometry" />
        </mxCell>
        <mxCell id="pLPm9OdBzMOnJSmySy2Y-6" value="Dao" style="rounded=0;whiteSpace=wrap;html=1;" vertex="1" parent="1">
          <mxGeometry x="670" y="300" width="120" height="60" as="geometry" />
        </mxCell>
        <mxCell id="pLPm9OdBzMOnJSmySy2Y-7" value="Database" style="rounded=0;whiteSpace=wrap;html=1;" vertex="1" parent="1">
          <mxGeometry x="940" y="300" width="120" height="60" as="geometry" />
        </mxCell>
        <mxCell id="pLPm9OdBzMOnJSmySy2Y-16" value="entity&lt;br&gt;(JAVA Bean)" style="rounded=0;whiteSpace=wrap;html=1;" vertex="1" parent="1">
          <mxGeometry x="550" y="390" width="120" height="60" as="geometry" />
        </mxCell>
        <mxCell id="pLPm9OdBzMOnJSmySy2Y-21" value="student" style="text;html=1;strokeColor=none;fillColor=none;align=center;verticalAlign=middle;whiteSpace=wrap;rounded=0;" vertex="1" parent="1">
          <mxGeometry x="65" y="430" width="60" height="30" as="geometry" />
        </mxCell>
        <mxCell id="pLPm9OdBzMOnJSmySy2Y-24" value="JDBC" style="text;html=1;strokeColor=none;fillColor=none;align=center;verticalAlign=middle;whiteSpace=wrap;rounded=0;" vertex="1" parent="1">
          <mxGeometry x="840" y="300" width="60" height="30" as="geometry" />
        </mxCell>
        <mxCell id="pLPm9OdBzMOnJSmySy2Y-25" value="&lt;font style=&quot;font-size: 19px;&quot;&gt;Model&lt;/font&gt;" style="text;html=1;strokeColor=none;fillColor=none;align=center;verticalAlign=middle;whiteSpace=wrap;rounded=0;" vertex="1" parent="1">
          <mxGeometry x="575" y="220" width="60" height="30" as="geometry" />
        </mxCell>
      </root>
    </mxGraphModel>
  </diagram>
</mxfile>
